<?xml version="1.0" encoding="UTF-8"?>
<svg id="Layer_1" data-name="Layer 1" xmlns="http://www.w3.org/2000/svg" version="1.1" viewBox="0 0 1800 1892.8">
  <defs>
    <style>
      .cls-1 {
        fill: #e15554;
      }

      .cls-1, .cls-2, .cls-3 {
        fill-rule: evenodd;
        stroke-width: 0px;
      }

      .cls-2 {
        fill: #e1bc29;
      }

      .cls-3 {
        fill: #3bb273;
      }
    </style>
  </defs>
  <path class="cls-1" d="M1697.7,440c-25,24-49.4,47.4-73.7,70.9-11.1,10.8-22.1,21.6-32.5,33-5.6,6.2-9.1,6.8-15.6.6-62.7-60.4-131.3-113.3-207.8-154.8-39.6-21.5-81.4-39.2-122.9-57.2-52.1-22.6-107-37-162.7-46.6-81.1-14.1-162.6-23.6-245.1-14.4-40,4.5-80.5,6.4-119.9,14.2-45.2,8.9-90.2,20.7-133.8,35.3-98.7,33.1-189.7,81.7-271.9,145.7-30.6,23.8-58.9,50.6-88,76.3-5.2,4.6-9,9.2-15.9,2.2-34.7-35.1-69.8-69.8-104.6-104.7-.6-.6-.6-1.8-.9-2.7,380.9-401.9,1116.6-477.7,1595.4,2.3"/>
  <path class="cls-3" d="M330.3,663.7c73.4-71.8,156-128.6,250.1-168.9,71.3-30.6,145.2-51.2,222.1-59.8,82.2-9.2,163.9-6.8,245.5,8.5,156.9,29.5,291.9,100.7,408.1,209.3,10.6,9.9,10.8,16.1.3,26.2-30.8,29.8-60.9,60.4-90.7,91.1-7.9,8.1-13.1,9.3-21.7.6-46.1-47.1-99.8-84-158.8-112.6-68.9-33.3-140.6-57.5-217.5-63.3-18.3-1.4-36.7-4.3-55-4.7-74.2-1.5-146.3,10.1-217,33.6-82.9,27.6-156.5,70.6-222.6,127.1-8.3,7.1-15.4,15.7-23.9,22.5-2.7,2.1-10.2,2.5-12.2.5-35.4-35-70.3-70.5-105.3-106-.6-.6-.6-1.8-1.3-4"/>
  <path class="cls-1" d="M899.2,1238.5c-28.3-28.7-54-54.8-79.8-80.9-8.7-8.8-17.1-18.1-26.3-26.4-7.5-6.8-6.9-11.5.8-17.8,51.5-42.1,108.4-49.1,169.1-24.7,15.3,6.1,28.4,17.7,42.5,26.7,7.1,4.5,5.8,8.9.5,14.3-34.9,35.4-69.6,71-106.8,108.9"/>
  <path class="cls-1" d="M1348.7,960.6c-89.8-127.2-213.6-203-369.1-225.2-106-15.1-207-.4-304.2,44.3-102.4,47.1-181.9,119.2-240,215.2-36.1,59.7-56.9,124.7-66.2,193.9-9.4,70.9-6.3,140.1,12,206.4,16.8-63.3,74.5-110,143.2-110s41.9,4.6,60.4,12.9c-1.8-15.9-2.6-32.1-2.4-48.4,1.1-56.6,13.1-110.4,42-159.6,40.4-68.7,100-115.3,172.9-144.5,87.2-34.9,172.4-24,253.6,19.8,81.6,44.1,135.5,111.7,160,201.3,25.9,94.8,16.1,186.6-37.6,269.1-70.5,108.1-172,164.9-302.3,150.8-85.6-9.2-154.4-46-205.9-106.9-19.5,59.1-75.1,101.7-140.7,101.7s-38-3.8-55.1-10.6c102.3,139.5,248.3,209.9,434.1,214.2,9.2,0,18.4.3,27.6,0,144.6-6.1,266.6-62.5,366.3-166.7,73.1-76.5,118.6-167.1,136.1-272,23.4-140.1-3.2-270.2-84.8-385.7"/>
  <path class="cls-2" d="M625.2,1437.7c0,59.6-48.3,107.8-107.8,107.8s-107.8-48.3-107.8-107.8,48.3-107.8,107.8-107.8,107.8,48.3,107.8,107.8"/>
  <path class="cls-3" d="M1166.6,1445.8c-70.1,101.6-169.3,154.4-295.5,140.8-85.6-9.2-154.4-46-206-106.9-19.5,59.1-75.1,101.7-140.7,101.7s-38-3.8-55.1-10.6c102.3,139.5,248.3,209.9,434.1,214.2,9.2,0,18.4.3,27.6,0,144.6-6.1,266.6-62.5,366.3-166.7,48.9-51.1,85.3-108.6,109.4-172.5h-240.2,0Z"/>
</svg>